<svg xmlns="http://www.w3.org/2000/svg" width="48" height="48" fill="none"><defs/><path fill="#563D7C" d="M0 41.8109C0 45.2294 2.77097 48 6.18915 48H41.8109C45.2294 48 48 45.229 48 41.8109V6.18915C48 2.7706 45.229 0 41.8109 0H6.18915C2.7706 0 0 2.77097 0 6.18915V41.8109z"/><path fill="#fff" d="M19.9045 21.2321v-6.7975h5.9835c.5698 0 1.1193.0475 1.6485.1425.5291.095.9972.2645 1.4043.5088.407.2442.7326.5834.9769 1.0176.2442.4341.3663.9904.3663 1.6688 0 1.2211-.3663 2.103-1.099 2.6458-.7327.5427-1.6689.814-2.8086.814h-6.4719zM13.514 9.46875V38.5312h14.0835c1.3026 0 2.5712-.1628 3.8058-.4884 1.2347-.3256 2.3337-.8276 3.2971-1.506.9633-.6784 1.7299-1.5536 2.2997-2.6254.5699-1.0719.8548-2.3405.8548-3.8058 0-1.8181-.441-3.3717-1.3229-4.6606-.8819-1.289-2.2183-2.1912-4.0093-2.7068 1.3025-.6241 2.2862-1.4246 2.951-2.4015.6649-.9769.9973-2.198.9973-3.6634 0-1.3568-.2239-2.4965-.6716-3.4191-.4478-.9226-1.0787-1.6621-1.8928-2.2184-.814-.5562-1.7909-.9565-2.9306-1.20072-1.1397-.24422-2.4016-.36633-3.7855-.36633H13.514zm6.3905 24.09665v-7.978h6.9604c1.3839 0 2.4965.3189 3.3377.9566.8412.6377 1.2618 1.7028 1.2618 3.1952 0 .7598-.1289 1.384-.3867 1.8724-.2578.4885-.6038.8751-1.0379 1.1601-.4342.2849-.9362.4884-1.5061.6105-.5698.1221-1.1668.1832-1.7909.1832h-6.8383z"/></svg>