<svg xmlns="http://www.w3.org/2000/svg" width="32" height="46" fill="none"><defs/><g clip-path="url(#clip0)"><path fill="#264DE4" d="M15.9805 45.011L2.95773 41.3958.05566 8.8457H31.9444l-2.9052 32.545-13.0587 3.6203z"/><path fill="#2965F1" d="M26.5521 39.3183l2.4826-27.8112H16v30.7367l10.5521-2.9255z"/><path fill="#EBEBEB" d="M6.70868 23.5795l.3578 3.9921h8.93362v-3.9921H6.70868zM5.98969 15.4993l.3629 3.9922h9.64751v-3.9922H5.98969zM16 33.9475l-.0175.0047-4.4461-1.2005-.2842-3.184H7.24475l.5593 6.2683 8.17755 2.2701L16 38.101v-4.1535z"/><path fill="#000" d="M7.56055 0h4.83515v2.02198H9.58252v2.02198h2.81318v2.02197H7.56055V0zM13.3626 0h4.8352v1.75824h-2.8132v.35165h2.8132v4.04396h-4.8352V4.30769h2.8132v-.35165h-2.8132V0zM19.1649 0h4.8352v1.75824h-2.8132v.35165h2.8132v4.04396h-4.8352V4.30769h2.8132v-.35165h-2.8132V0z"/><path fill="#fff" d="M25.2658 23.5795l.7207-8.0802H15.9861v3.9922h5.6254l-.3633 4.088h-5.2621v3.9921h4.9159l-.4634 5.1775-4.4525 1.2017v4.1534l8.1841-2.2683.0601-.6744.9381-10.51.0974-1.072z"/></g><defs><clipPath id="clip0"><path fill="#fff" d="M0 0h32v45.125H0z"/></clipPath></defs></svg>