<svg xmlns="http://www.w3.org/2000/svg" width="32" height="48" fill="none"><defs/><path fill="#0ACF83" d="M8 48c4.416 0 8-3.584 8-8v-8H8c-4.416 0-8 3.584-8 8s3.584 8 8 8z"/><path fill="#A259FF" d="M0 24c0-4.416 3.584-8 8-8h8v16H8c-4.416 0-8-3.584-8-8z"/><path fill="#F24E1E" d="M0 8c0-4.416 3.584-8 8-8h8v16H8c-4.416 0-8-3.584-8-8z"/><path fill="#FF7262" d="M16 0h8c4.416 0 8 3.584 8 8s-3.584 8-8 8h-8V0z"/><path fill="#1ABCFE" d="M32 24c0 4.416-3.584 8-8 8s-8-3.584-8-8 3.584-8 8-8 8 3.584 8 8z"/></svg>