<svg xmlns="http://www.w3.org/2000/svg" width="32" height="32" fill="none"><defs/><path fill="#744C9E" d="M16 0C7.16345 0 0 7.16342 0 16c0 8.8366 7.16348 16 16 16 8.8366 0 16-7.1634 16-16 0-8.83658-7.1634-16-16-16zM3.438 16.1668L15.8332 28.562C9.02681 28.4733 3.52668 22.9732 3.438 16.1668zm15.374 12.0811L3.75208 13.188C5.0291 7.60291 10.0278 3.4359 16 3.4359c4.1747 0 7.8731 2.03661 10.1578 5.1699l-1.7395 1.5349C22.565 7.48297 19.4858 5.74359 16 5.74359c-4.4381 0-8.21756 2.81906-9.6461 6.76411l13.1384 13.1384c3.1907-1.1554 5.6446-3.8488 6.4664-7.1846h-5.4459V16h8.0513c0 5.9722-4.167 10.9709-9.7521 12.2479z"/></svg>