<svg xmlns="http://www.w3.org/2000/svg" width="256" height="256" preserveAspectRatio="xMidYMid"><defs/><path fill="#DE4C36" d="M251.17225 116.59352L139.39875 4.82845c-6.43232-6.43793-16.8729-6.43793-23.31364 0L92.87539 28.03817l29.4426 29.44261c6.84242-2.3117 14.6876-.7612 20.14243 4.69363 5.48012 5.48854 7.01938 13.40113 4.6515 20.26602l28.37524 28.37523c6.86488-2.36507 14.7859-.83423 20.26883 4.65712 7.6626 7.6598 7.6626 20.07501 0 27.74043-7.66542 7.66541-20.08064 7.66541-27.74886 0-5.76381-5.76943-7.18791-14.23537-4.2695-21.3362l-26.46238-26.4624-.00281 69.63759c1.8679.92693 3.63187 2.16002 5.18798 3.71052 7.66261 7.6598 7.66261 20.07502 0 27.74605-7.66541 7.6626-20.08625 7.6626-27.74043 0-7.6626-7.67103-7.6626-20.08625 0-27.74605 1.89318-1.89037 4.0841-3.32009 6.42109-4.28072V94.19556c-2.33698-.95501-4.5251-2.3763-6.42109-4.28072-5.80594-5.79751-7.20195-14.31683-4.22735-21.44575L81.47136 39.4422l-76.6401 76.6345c-6.44075 6.44355-6.44075 16.88413 0 23.32207l111.77349 111.76787c6.43513 6.43794 16.8729 6.43794 23.31645 0L251.17225 139.9184c6.43793-6.44075 6.43793-16.88694 0-23.32488"/></svg>