<svg xmlns="http://www.w3.org/2000/svg" width="32" height="32" fill="none"><defs/><g clip-path="url(#clip0)"><path fill="#161614" d="M16.0001 0C7.16466 0 0 7.16334 0 16.0001c0 7.0693 4.58452 13.0668 10.9419 15.1825.7996.1481 1.0932-.3471 1.0932-.7697 0-.3815-.0149-1.6419-.0218-2.9789-4.45121.9679-5.39047-1.8878-5.39047-1.8878-.72784-1.8494-1.77653-2.3411-1.77653-2.3411-1.45169-.9931.10943-.9727.10943-.9727 1.60669.1129 2.45269 1.6488 2.45269 1.6488 1.42705 2.4461 3.74298 1.7389 4.65608 1.3301.1436-1.0341.5582-1.74 1.0158-2.1395-3.55383-.4046-7.2897-1.7765-7.2897-7.9073 0-1.7469.62503-3.1742 1.64856-4.2947-.16613-.403-.71379-2.03035.15499-4.23425 0 0 1.34359-.43003 4.40115 1.64007 1.2763-.35451 2.6451-.5323 4.0048-.53839 1.3598.00609 2.7296.18388 4.0083.53839 3.0539-2.0701 4.3956-1.64007 4.3956-1.64007.8709 2.2039.323 3.83125.1568 4.23425 1.026 1.1205 1.6467 2.5478 1.6467 4.2947 0 6.1453-3.743 7.4985-7.3058 7.8946.5739.4965 1.0852 1.4702 1.0852 2.963 0 2.1408-.0185 3.8638-.0185 4.3908 0 .4258.288.9247 1.099.7676C27.4213 29.0624 32 23.067 32 16.0001 32 7.16334 24.8364 0 16.0001 0zM5.99257 22.7925c-.03524.0795-.1603.1034-.27423.0488-.11605-.0522-.18123-.1606-.1436-.2403.03444-.0819.15976-.1047.27555-.0498.11631.0521.18255.1616.14228.2413zm.78703.7023c-.07631.0707-.22548.0379-.32669-.0739-.10466-.1116-.12427-.2608-.0469-.3326.07869-.0707.22336-.0376.32828.074.10466.1128.12506.2609.04531.3325zm.53993.8985c-.09803.0681-.25833.0042-.35742-.138-.09804-.1423-.09804-.313.00211-.3813.09936-.0684.25728-.0069.35769.1343.09777.1447.09777.3153-.00238.385zm.91314 1.0406c-.0877.0967-.27449.0707-.41121-.0612-.1399-.129-.17885-.3121-.09088-.4088.08876-.097.27661-.0697.41439.0612.13884.1287.18123.3131.0877.4088zm1.18014.3513c-.03868.1253-.21858.1823-.39981.129-.18097-.0548-.2994-.2016-.26284-.3283.03762-.1261.21832-.1854.40088-.1285.1807.0546.2994.2003.26177.3278zm1.34309.149c.0045.132-.1492.2414-.3394.2438-.1913.0042-.3461-.1026-.3482-.2324 0-.1333.1502-.2416.3415-.2448.1903-.0037.3461.1023.3461.2334zm1.3194-.0506c.0228.1288-.1095.261-.2984.2962-.1857.034-.3577-.0455-.3812-.1732-.0231-.132.1115-.2642.297-.2984.1892-.0328.3585.0445.3826.1754z"/></g><defs><clipPath id="clip0"><path fill="#fff" d="M0 0h32v31.25H0z"/></clipPath></defs></svg>