<svg xmlns="http://www.w3.org/2000/svg" width="48" height="45" fill="none"><defs/><g clip-path="url(#clip0)"><path fill="#E24329" d="M24.0139 44.264l8.832-27.1819h-17.664l8.832 27.1819z"/><path fill="#FC6D26" d="M24.0139 44.264l-8.832-27.182H2.80408L24.0139 44.264z"/><path fill="#FCA326" d="M2.80416 17.0821L.12027 25.3424c-.2448.7534.02331 1.5788.66423 2.0444L24.014 44.264 2.80416 17.0821z"/><path fill="#E24329" d="M2.8042 17.0821H15.182L9.86248.71066c-.2736-.84252-1.46537-.84229-1.73897 0L2.8042 17.0821z"/><path fill="#FC6D26" d="M24.0139 44.264l8.832-27.182h12.3778L24.0139 44.264z"/><path fill="#FCA326" d="M45.2237 17.0821l2.6839 8.2603c.2448.7534-.0233 1.5788-.6642 2.0444L24.0139 44.264l21.2098-27.1819z"/><path fill="#E24329" d="M45.2238 17.0821H32.8459L38.1655.71066c.2736-.84252 1.4654-.84229 1.739 0l5.3193 16.37144z"/></g><defs><clipPath id="clip0"><path fill="#fff" d="M0 0h48v44.25H0z"/></clipPath></defs></svg>