<svg xmlns="http://www.w3.org/2000/svg" width="32" height="46" fill="none"><defs/><g clip-path="url(#clip0)"><path fill="#E44D26" d="M31.9444 8.8457l-2.9052 32.545-13.0587 3.6203-13.02277-3.6152L.05566 8.8457H31.9444z"/><path fill="#F16529" d="M16 42.2438l10.5521-2.9255 2.4826-27.8112H16v30.7367z"/><path fill="#EBEBEB" d="M10.3525 19.4915H16v-3.9922H5.98962l.09556 1.0711.98119 11.0012H16v-3.9921h-5.2826l-.3649-4.088zM11.2522 29.5677H7.24475l.5593 6.2683 8.17755 2.2701L16 38.101v-4.1535l-.0175.0047-4.4461-1.2005-.2842-3.184z"/><path fill="#000" d="M3.02258 0h2.02875v2.00439h1.85582V0h2.02884v6.0698H6.90724V4.03727H5.05142V6.0698H3.02267V0h-.00009zM11.6039 2.01283H9.81787V0h5.60173v2.01283h-1.7868V6.0698H11.604V2.01283h-.0001zM16.3087 0h2.1154l1.3013 2.13275L21.0254 0h2.1162v6.0698h-2.0204V3.06127l-1.3958 2.15816h-.0349l-1.3967-2.15816V6.0698h-1.9851V0zM24.1512 0h2.0293v4.06347h2.8531V6.0698h-4.8824V0z"/><path fill="#fff" d="M15.9863 27.5716h4.9158l-.4633 5.1775-4.4525 1.2018v4.1533l8.1841-2.2682.06-.6745.9381-10.51.0974-1.072h-9.2796v3.9921zM15.9863 19.4817v.0098h9.6429l.0801-.8973.1819-2.0238.0954-1.0711H15.9863v3.9824z"/></g><defs><clipPath id="clip0"><path fill="#fff" d="M0 0h32v45.125H0z"/></clipPath></defs></svg>