<svg xmlns="http://www.w3.org/2000/svg" width="48" height="47" fill="none"><defs/><g clip-path="url(#clip0)"><path fill="url(#paint0_radial)" d="M1.99994 2.0047H46.0001v42.8H1.99994v-42.8z"/><path fill="#FF7F18" d="M1.99998 2.0048H46.0001V44.805H1.99998V2.0048zM0 46.8051h48.0001V.00482H0V46.8051zm31.44-30.1202c0-.16.06-.24.2401-.24h3.14c.1599 0 .2399.06.2399.24V32.465c0 .1599-.04.24-.2399.24h-3.1c-.2 0-.2601-.1-.2601-.26V16.6849h-.02zm-.22-4.54c0-1.28.9-2.04 2.0401-2.04 1.22 0 2.04.82 2.04 2.04 0 1.3199-.86 2.0399-2.08 2.0399-1.1601.0001-2.0001-.72-2.0001-2.0399zm-9 11.12c-.5599-2.22-1.8799-7.06-2.38-9.4h-.04c-.42 2.34-1.4799 6.3-2.3199 9.4H22.22zm-5.56 3.2401l-1.58 6c-.04.1599-.1.1999-.2999.1999H11.84c-.1999 0-.24-.06-.1999-.2999L17.32 12.5248c.1-.3599.16-.68.2-1.6599 0-.14.06-.2.16-.2h4.2c.14 0 .2.04.24.2l6.36 21.5801c.04.1599 0 .2599-.16.2599H25c-.16 0-.2601-.04-.3-.1799l-1.64-6.02h-6.4z"/></g><defs><radialGradient id="paint0_radial" cx="0" cy="0" r="1" gradientTransform="matrix(33.4401 0 0 32.376 16.4914 11.5962)" gradientUnits="userSpaceOnUse"><stop stop-color="#423325" stop-opacity=".98"/><stop offset="1" stop-color="#1C0A00"/></radialGradient><clipPath id="clip0"><path fill="#fff" d="M0 0h48v46.8096H0z"/></clipPath></defs></svg>