<svg xmlns="http://www.w3.org/2000/svg" width="64" height="96" fill="none"><defs/><path fill="#DCAE28" d="M7.55019 55.2307l-.07197-.0278-.57339-1.6668c-.01393-.0812-.14393-.2136-.16018-.2948-.36446-.8845-1.47411-9.4529-2.92501-10.9874-1.28607-1.358-2.28197-5.063-2.2959-5.5064-.07196-2.1311.75911-7.5517.61751-8.4245-.1509-.9286-1.14447-.6431-1.09108-2.4166a.64045.64045 0 01.07511-.278.63998.63998 0 01.18928-.217.64014.64014 0 01.55276-.097c.47621.1514.9746.2213 1.47411.2066a.55266.55266 0 00.25265-.0804.55174.55174 0 00.1861-.1889c.36446-.6268 1.18393-2.5536-.0325-5.8802-.04643-.13-.05339-1.0702.5525-1.553.27393-.2182.58732-.3645.85893-.1439a.59435.59435 0 00.60709.0873.59475.59475 0 00.24938-.1978.5945.5945 0 00.11157-.2981c.10679-1.3929.49911-3.3127 1.82929-3.7515 1.47876-.4898 1.99179-.9889 2.16826-1.2512a.5093.5093 0 00.0766-.3343c-.0697-.7545-.46432-4.35965-1.62504-6.8227a.8868.8868 0 01.18572-1.01679c.54321-.52 1.75962-.98429 4.33872.46429l.0418.02786.6407.42482a.58764.58764 0 00.2373.08449.58707.58707 0 00.2508-.02265.58723.58723 0 00.3639-.33113 6.00064 6.00064 0 00.4922-2.05447c.0441-1.37661 1.2257-.25768 2.5164.1509.8241.26 1.0562-.56179.9123-.99126-.0255-.0766.9797.09983 1.047.14393.845.5734 1.358 2.47697 3.2129 1.29072 2.3817-1.52054 3.25 3.78858 3.9023 4.04626.6523.25768 1.5925-4.9168 2.4096-5.3393.9449-.4875.9031-1.03304.989-.94714.0859.08589 4.5384 4.45251 4.9005 4.10662.3227-.30876 4.16-3.12698 5.1536-3.30109.9936-.1741 2.6743 2.81126 2.7346 3.32894.0604.51768 2.5838-2.72536 2.8368-2.69751.2531.02786 1.6668 3.42876 1.9222 3.8443.2553.41554 1.6923 2.66965 2.925 2.26804 1.2327-.4016 1.033 3.67017 1.6366 3.67017.6036 0 5.1234-3.19195 5.727-2.7532.6036.43875 1.2466 1.2907 1.0748 5.0491-.1369 3.0179 1.0284 3.25 1.4997 3.25a.94374.94374 0 01.4875.1254c.5966.3296 1.8989 1.1607 1.943 2.2007.058 1.3488-1.033 4.7636-1.6621 5.5715-.6291.8078 1.7201 3.6144-.4643 4.8193-2.0127 1.1119-.2136 4.738.0766 5.2928a.46407.46407 0 01.0487.1579c.072.585.404 3.965-1.2443 5.2209-1.5298 1.1607-2.9435 10.1633-3.64 12.5102a9.64611 9.64611 0 01-.7777 1.5856l-.5896 1.0864"/><path fill="#DCAE28" d="M7.82642 54.2233l-.07197-.0279.73126.7289a28.16285 28.16285 0 01-1.24661-4.4107c-.46429-2.4491-.84036-5.0073-1.75269-7.3381-.38304-.9796-1.04-1.6644-1.53447-2.5721a14.35642 14.35642 0 01-1.34875-3.7143c-.06268-.2925-.0325-.1439-.03714-.2322-.01393-.2321 0-.4851 0-.7289.02553-.6964.08821-1.4114.15321-2.1148.13232-1.4393.32036-2.8763.42946-4.3179.06965-.9286.0859-1.7527-.57107-2.4862-.11607-.13-.26464-.2322-.37839-.3668a1.00783 1.00783 0 01-.10911-.3831c.03946.1532-.47822.1022.01625.1834.81018.1323 1.66447.2624 2.30519-.3644.71036-.6965.91232-1.9547.98661-2.8925a8.87335 8.87335 0 00-.16018-2.3099 11.49729 11.49729 0 00-.33893-1.365c-.27393-.8519-.16947-.5246-.13-.3784l.01393-.1369c.13232-.1927.08125-.3297-.1509-.4109-.15089-.4179-.26464-.079.11608.0418.12535.0417.23214.13.3691.1648a1.6253 1.6253 0 001.03304-.0906c.77072-.318.94251-.9494 1.04001-1.7109.08589-.6755.19035-1.495.59893-2.0614.46428-.6268 1.39286-.7266 2.05911-1.1096.99591-.5804 1.46951-1.2908 1.33251-2.4631a28.56777 28.56777 0 00-.7963-4.28768c-.0835-.30179-.90996-2.16126-.81014-2.30983.23214-.34125 1.14214-.07893 1.41144 0 1.2002.33197 2.7625 1.99411 4.0323 1.09804.6965-.49214.9286-1.52286 1.0656-2.32144.0301-.17643.1393-.4875.0835-.65928.0743-.28786-.0255-.28786-.3041 0-.3884.12381-.4279.2097-.1184.25768.1834.23214.8033.38071 1.0865.4991 1.5878.65697 3.1107-.24375 2.7416-2.06375l-.7313 1.28375c-.1926.07893.2902.07893.4132.11839-.3551-.11142-.1926-.13928.0209.13465.2865.38807.6176.74104.9867 1.05161 1.1096.86822 1.9337.40625 3.0898.02553.6755-.23214.9286.48751 1.2141 1.07251.3645.73125.578 1.55304.9843 2.26108.3761.65464 1.0678 1.11661 1.8223.69643.7127-.39232.975-1.43001 1.2164-2.1334.3274-.95411.6315-1.91287.9634-2.86465.1741-.50143.209-.3459.6338-.67786a3.4657 3.4657 0 00.8125-.97733l-1.1793.48054c-.5664-.08125-.4898-.39697-.2902-.12536.1058.11933.2207.23032.3436.33197.3645.35285.7336.69643 1.105 1.04929a30.6001 30.6001 0 002.6418 2.28661c.715.52697 1.3302.83572 2.1357.2925.8056-.54321 1.6088-1.2025 2.4445-1.75965a16.95242 16.95242 0 011.6529-1.01679c.123-.06268.3458-.23214.4991-.23214-.3459 0 0 .11839.1253.26697a12.7005 12.7005 0 011.437 2.34697c.6245 1.25822 1.6807.69643 2.4352-.06732.4016-.40626.773-.83804 1.1607-1.25822.1718-.19036.3621-.36911.5246-.56643.2322-.27625.5015-.24608 0-.11608l-.8032-.10446c-.4248-.23214-.1555-.16018 0 .17875.1184.26232.2577.51768.3831.77768.2855.6059.5548 1.22108.8357 1.83161a7.99577 7.99577 0 001.7805 2.52573c.4371.44075.981.76067 1.5786.92857.2321.0534.7521.13929.9727 0 .2902-.18339-.3691-.2925-.4225-.1625-.0116.0325.1114.25536.116.30411.0999.8404.2322 2.1636.6965 2.8995.6221.9819 1.5948.5896 2.4166.1485 1.112-.5966 2.1659-1.2953 3.2871-1.8757.2066-.1091.4249-.1973.6315-.3087.2693-.1486.4852.0209.1671-.1718-.5084-.3064-.0511.1787.0325.3598.6964 1.5182.1579 3.4334.3227 5.0259.1137 1.105.4898 2.3215 1.5832 2.8043.325.1463.6848.1207.9982.2322.6732.2576 1.307.9007 1.3093 1.625 0 1.2884-.6082 2.9157-1.1607 4.0625-.2321.4643-.5386.8311-.5873 1.365-.0534.5827.1625 1.1607.3227 1.7132.1276.4388.441 1.1607.2066 1.625-.1532.2972-.5432.4318-.7916.6407-.302.2549-.5458.5715-.715.9286-.5874 1.1979-.2902 2.6859.1346 3.8861.1764.4968.4132.9634.6152 1.4486.0952.2321 0-.3483.0255.1253.0139.2322.0348.4782.0395.7197.0325 1.4137-.1718 2.5048-1.1259 3.5448-.7963.8659-1.1607 2.0893-1.5043 3.1989-.4945 1.5484-.8543 3.1549-1.1909 4.7381-.3064 1.3928-.5757 2.7996-.9146 4.1786-.2786 1.1468-.8961 2.1241-1.4556 3.1548-.6407 1.1816 1.1607 2.2379 1.8038 1.0539.5734-1.0539 1.2466-2.0893 1.5669-3.25.3668-1.3278.6059-2.6975.8961-4.0462.3482-1.6111.6964-3.2245 1.1607-4.8077.2763-.9611.5665-2.1543 1.2234-2.86 1.1607-1.2467 1.5716-2.6511 1.625-4.3504a6.60428 6.60428 0 00-.5966-2.9993 6.0385 6.0385 0 01-.5386-2.0754c-.0255-.9285.4945-.9912 1.0865-1.5786 1.2164-1.2094.7243-2.8344.3273-4.2714-.0464-.1648-.0836-.6964-.1602-.4271.0993-.2085.215-.4088.3459-.599.3833-.8081.694-1.6487.9286-2.5118.4295-1.4764.9286-3.1989-.0673-4.5477a5.39752 5.39752 0 00-1.8572-1.5367 4.42507 4.42507 0 00-1.0144-.2693c-.2043-.0511-.065.0185-.0999-.0186-.3737-.39-.3644-1.2304-.3644-1.7643 0-1.1236.0766-2.2286-.0674-3.3475-.1276-1.0214-.4016-2.11484-1.2326-2.79734-.9286-.76839-2.022-.17643-2.9552.30643-1.1236.58036-2.5257 1.20481-3.5147 1.99641 0 0-.2669.1788-.2321.1138.1369-.2507.9982.1462.9169.4039.0418-.137-.1183-.4852-.1485-.6384a15.84558 15.84558 0 00-.3807-1.88964c-.2066-.63839-.5479-1.29304-1.2281-1.51822-.3319-.11143-.5989.03715-.903-.01393a1.59456 1.59456 0 01-.8079-.54785c-.9494-.97037-1.3928-2.21233-1.9523-3.41948-.4829-1.04465-1.2188-2.92733-2.6418-1.83161a9.53798 9.53798 0 00-1.1793 1.23036c-.2646.29018-.5246.58268-.7986.86357-.0719.07429-.2135.1625-.2507.25536-.1694.41786-.5362-.25304.5131.07429l.7289.72893c-.6152-1.43697-1.5182-3.52626-3.1432-4.04162-1.625-.51536-3.7468 1.46018-4.9308 2.30518-.3296.23215-.6593.47822-.9819.72429a2.50509 2.50509 0 00-.4295.32964c-.4132.49447.6477-.50839.7336-.09053-.0348-.17179-1.3024-1.02608-1.5647-1.25822-.6964-.61982-1.3789-1.2559-2.0521-1.90126-.3018-.29018-.7638-.90536-1.2072-.96804a1.09802 1.09802 0 00-.6664.05186 1.0986 1.0986 0 00-.5129.42868c-.3853.61518-1.0423.87054-1.3928 1.56001-.4341.83339-.6779 1.78518-.9634 2.67661-.1486.46429-.2786.92858-.4643 1.37662a1.80225 1.80225 0 00-.1648.3575c0 .52464 1.1978-.34358 1.2141.07893 0-.19036-.2902-.61751-.3691-.80786-.1765-.42483-.3459-.85429-.5386-1.26983-.6964-1.52751-1.9964-3.07358-3.8443-2.29126-.4318.1834-.715.53393-1.1607.2925-.3506-.19268-.5966-.71732-.8822-1.00054-.506-.50375-1.625-.92857-2.3353-.64536a1.07923 1.07923 0 00-.6182.4978 1.07963 1.07963 0 00-.1108.78596l.3738-.29482-.3343-.12304a3.00294 3.00294 0 00-.5479-.25768 6.1421 6.1421 0 00-.9471-.39696 1.53443 1.53443 0 00-1.6134.42482c-.5177.60589-.3807 1.50661-.592 2.2309l-.0487.16946c-.2058.30953-.1602.39078.137.24375.6012.13929.1021-.14857.0858-.1741-.0975-.1509-.4828-.31108-.6453-.40393-1.2141-.68251-2.7857-1.27911-4.1786-.89144-1.09572.29947-2.01036 1.26519-1.76893 2.47001.15785.79393.61286 1.56233.83571 2.3493a24.72703 24.72703 0 01.60126 2.71139c.07428.4504.27857 1.112.21357 1.574 0 .051.21125-.1347-.05107.0812a4.48362 4.48362 0 01-1.22108.5966c-1.50197.5943-2.24018 1.7249-2.57447 3.2895-.05804.2763-.22054.722-.15554.9913l-.0325.2785.79393-.0626c-.01625-.1022-.42946-.2554-.46428-.2693-.75679-.3181-1.5484.0232-2.07537.6128-1.22339 1.3674-.32732 2.8183-.09518 4.3411a5.8456 5.8456 0 01-.0325 2.1172 2.06673 2.06673 0 01-.18803.6407c-.21125.3319.0766.1648-.32036.058-1.75268-.4643-3.04573.5131-2.64644 2.4004a3.01807 3.01807 0 00.81483 1.4486c.30643.3412.23214.0905.21125.6523C1.013 31.5266.27014 34.18.47675 36.78c.0859 1.0818.51536 2.1937.90768 3.192.46429 1.2048 1.21644 2.2262 1.8293 3.2314.61286 1.0052.85661 2.3748 1.12821 3.5286.33429 1.4369.6059 2.8855.87751 4.3364.16714.8984.26928 1.8572.61982 2.6999.25768.6221.50143 2.0892 1.42768 2.47 1.24894.4991 1.78983-1.5206.55483-2.015h.00464z"/><path fill="#2A363D" d="M8.15286 67.7743c0-.0232.03483-.0302.03947 0 .17178.6964 1.22572 4.6057 5.05147 8.9491 4.2459 4.8193 8.7216 19.1635 19.3933 18.5901 5.6225-.3041 8.9653-7.4286 13.4248-14.0006 3.4125-5.0282 5.2418-10.4465 5.59-11.5375a.07224.07224 0 01.0264-.0338.07233.07233 0 01.041-.0128.07202.07202 0 01.0673.0466c.2112.52.903 1.9012 2.1218 1.5298 2.9691-.9031 8.6102-13.0511 5.063-13.339-.7962-.065-.8171-.0859-1.3116.065-2.2889.6964-2.5536 1.8293-2.5536 1.8293.3449-.9724.5527-1.9881.6175-3.0179.1765-5.4716.0581-18.7897-2.3818-23.667-.8125-1.625-3.8025-5.4577-7.7466-7.345-3.8141-1.8247-8.5243-2.0893-13.5386-2.4097a24.70895 24.70895 0 00-13.7452 3.2036c-4.499 2.5536-9.20685 5.3393-10.23757 14.0377 0 0-.77535 11.3611-.86125 15.2333l-.21589 2.2379s-3.04805-5.8594-4.29234.8101c-1.16072 6.175 2.90876 10.4976 2.90876 10.4976s2.11715 2.2471 2.53965-1.6668z"/><path fill="#DCAE28" d="M27.9022 88.5201l6.7995-.0418s-5.5506 2.1079-1.4625 5.207c0 0-2.7857 2.2077-5.3393-5.077"/></svg>