<svg xmlns="http://www.w3.org/2000/svg" width="64" height="96" fill="none"><defs/><path fill="#DCAE28" d="M7.54674 55.2231l-.06964-.0279-.57331-1.6665c-.01393-.0813-.14391-.2136-.16015-.2948-.36442-.8844-1.4739-9.4515-2.92459-10.9858-1.28589-1.3578-2.28164-5.0623-2.29557-5.5056-.07195-2.1308.759-7.5506.61742-8.4233-.15088-.9284-1.14663-.6429-1.09092-2.4163a.64039.64039 0 01.0751-.2779.6399.6399 0 01.18925-.217.64112.64112 0 01.26516-.1122.63967.63967 0 01.28752.0153 4.43349 4.43349 0 001.47389.2065.5525.5525 0 00.43869-.2692c.36441-.6267 1.18376-2.5532-.03249-5.8794-.04643-.1299-.05339-1.07.55242-1.5528.27389-.2182.58724-.3644.85881-.1439a.59416.59416 0 00.60699.0873.59446.59446 0 00.24936-.1977.5943.5943 0 00.11154-.2981c.10677-1.3926.49904-3.3122 1.82671-3.7509 1.48086-.4897 1.99382-.9888 2.17027-1.2511a.50888.50888 0 00.0766-.3342c-.0697-.7544-.46427-4.35902-1.62482-6.82171a.8867.8867 0 01.18569-1.01664c.54314-.51992 1.75943-.98414 4.33813.46422l.0418.02786.6406.42476a.58717.58717 0 00.488.06183.58721.58721 0 00.3639-.33108 5.99885 5.99885 0 00.492-2.05417c.0441-1.37642 1.2256-.25765 2.5161.15087.824.25996 1.0561-.56171.9122-.99111-.0255-.0766.9795.09981 1.0468.14391.8449.57331 1.3578 2.47661 3.2124 1.29053 2.3815-1.52032 3.2495 3.78803 3.9018 4.04567.6522.25765 1.5922-4.91608 2.4093-5.33852.9447-.48744.9029-1.0329.9888-.94701.0858.08588 4.5377 4.45186 4.8998 4.10602.3226-.3087 4.1594-3.12652 5.1528-3.3006.9935-.17408 2.674 2.81085 2.7343 3.32845.0603.51761 2.5811-2.72497 2.8364-2.69711.2553.02785 1.6665 3.42826 1.9219 3.84374.2553.41547 1.692 2.66926 2.9245 2.26771 1.2325-.40155 1.0329 3.66968 1.6248 3.66968.5919 0 5.1343-3.19153 5.7378-2.75284.6035.43868 1.2464 1.29054 1.0746 5.04834-.1369 3.0175 1.0283 3.2496 1.4995 3.2496a.94208.94208 0 01.4874.1253c.5965.3296 1.8987 1.1606 1.9428 2.2004.058 1.3486-1.0329 4.7629-1.6619 5.5707-.6291.8077 1.7199 3.6139-.4643 4.8186-2.0124 1.1118-.2135 4.7373.0766 5.2921a.46302.46302 0 01.0488.1578c.0719.5849.4038 3.9644-1.2441 5.2202-1.5296 1.1605-2.9432 10.1617-3.6395 12.5084a9.6546 9.6546 0 01-.7776 1.5853l-.5896 1.0862"/><path fill="#DCAE28" d="M7.82528 54.2157l-.07195-.0278.72882.7288a28.41376 28.41376 0 01-1.2441-4.4101c-.46422-2.4488-.84024-5.0066-1.75244-7.337-.38298-.9795-1.03985-1.6642-1.53424-2.5718a14.35371 14.35371 0 01-1.34856-3.7137c-.06499-.2925-.03249-.144-.03714-.2322-.01392-.2321 0-.4851 0-.7288.02554-.6963.0882-1.4112.15319-2.1145.13231-1.4391.32032-2.8758.42941-4.3172.06963-.9285.08588-1.7525-.57099-2.4859-.11606-.13-.26461-.2322-.37834-.3668a1.00681 1.00681 0 01-.10909-.383c.03713.1532-.47815.1022.01624.1834.81007.1323 1.66423.2623 2.30486-.3644.71025-.6963.91219-1.9544.98646-2.8921a8.9736 8.9736 0 00-.16015-2.3095 11.49586 11.49586 0 00-.33888-1.3648c-.27389-.8518-.17176-.5246-.12998-.3783l.01392-.137c.1323-.1926.08124-.3296-.15087-.4108-.15087-.4178-.2646-.0789.11606.0418.12534.0417.23211.1299.36905.1648a1.62486 1.62486 0 001.03289-.0906c.7706-.3179.94237-.9493 1.03985-1.7106.08588-.6754.19033-1.4948.59885-2.0611.46422-.6267 1.39265-.7265 2.05881-1.1095.99574-.5803 1.46924-1.2906 1.33234-2.4627a28.86224 28.86224 0 00-.7962-4.28709c-.0835-.30174-.90984-2.16094-.81003-2.30949.23211-.3412 1.14203-.07892 1.41123 0 1.2.33192 2.7621 1.99382 4.0317 1.09788.6964-.49207.9285-1.52264 1.0654-2.3211.0302-.1764.1393-.48743.0836-.65919.0743-.28782-.0255-.28782-.3041 0-.3884.12379-.4278.20967-.1183.25764.1833.23211.8031.38066 1.0862.49904 1.5877.65687 3.1103-.24372 2.7412-2.06346l-.7311 1.28357c-.1927.07891.2878.07891.4132.11837-.3552-.11141-.195-.13926.0208.13463a6.1392 6.1392 0 00.9865 1.05145c1.1095.8681 1.9335.4062 3.0894.02554.6754-.23211.9284.48743 1.2139 1.07234.3644.73115.578 1.55282.9842 2.26075.376.65455 1.0677 1.11645 1.822.69633.7126-.39226.9749-1.42979 1.2163-2.13309.325-.95397.6313-1.91258.9633-2.86423.174-.50136.2089-.34585.6336-.67776a3.46492 3.46492 0 00.8124-.97719l-1.1791.48047c-.5664-.08124-.4898-.39691-.2902-.12534.1058.11932.2207.23028.3436.33192.3644.35281.7334.69633 1.1048 1.04914a30.24867 30.24867 0 002.6414 2.28628c.7149.52689 1.33.83559 2.1354.29246.8055-.54314 1.6086-1.20233 2.4441-1.7594a16.68219 16.68219 0 011.6527-1.01664c.123-.06267.3458-.23211.499-.23211-.3458 0 0 .11838.1253.26693a12.69214 12.69214 0 011.4368 2.34663c.6244 1.25804 1.6805.69633 2.4348-.06731.4016-.40619.773-.83792 1.1606-1.25804.1718-.19033.3621-.36905.5222-.56635.2321-.27621.5037-.24603 0-.11605l-.8031-.10445c-.4247-.23211-.1555-.16016 0 .17872.1184.26229.2577.51761.3807.77757.2878.60581.5571 1.2209.8379 1.83135a7.99579 7.99579 0 001.7803 2.52536c.437.44068.9808.76056 1.5783.92844.2322.05338.7521.13926.9726 0 .2901-.18337-.3691-.29246-.4225-.16248-.0116.0325.1115.25532.1161.30406.0998.8402.2321 2.1633.6963 2.8991.6221.9818 1.5946.5895 2.4163.1485 1.1118-.5965 2.1656-1.2952 3.2867-1.8754.2066-.1091.4247-.1973.6313-.3087.2693-.1486.4851.0208.1671-.1718-.5083-.3064-.051.1787.0325.3598.6964 1.518.1579 3.4329.3227 5.0251.1137 1.1049.4897 2.3211 1.5829 2.8039.325.1463.6848.1207.9981.2321.6731.2577 1.3068.9006 1.3091 1.6248 0 1.2882-.6081 2.9153-1.1605 4.0619-.2321.4643-.5385.831-.5896 1.3648-.0534.5826.1648 1.1606.325 1.713.1276.4387.441 1.1606.2065 1.6248-.1532.2971-.5431.4317-.7915.6406a2.76514 2.76514 0 00-.7149.9284c-.5872 1.1977-.2901 2.6856.1347 3.8856.1764.4967.4131.9632.6151 1.4483.0951.2321 0-.3481.0255.1254.0139.2321.0348.4781.0395.7195.0325 1.4136-.1718 2.5045-1.1281 3.5443-.7938.8658-1.1605 2.089-1.5018 3.1985-.4758 1.5575-.8355 3.1544-1.1814 4.7467-.3064 1.3926-.5779 2.7992-.9145 4.1779-.2785 1.1467-.8959 2.1238-1.4553 3.1544-.6407 1.1814 1.1605 2.2375 1.8035 1.0538.5733-1.0538 1.2464-2.089 1.5667-3.2496.3644-1.3276.6058-2.6971.896-4.0456.3481-1.6109.6963-3.224 1.1605-4.807.2762-.961.5663-2.154 1.2232-2.8596 1.1606-1.2465 1.5714-2.6507 1.6248-4.3498a6.57138 6.57138 0 00-.5942-2.9988 6.0345 6.0345 0 01-.5385-2.0751c-.0255-.9284.4944-.9911 1.0863-1.5783 1.2162-1.2093.7241-2.8341.3272-4.2709-.0464-.1648-.0835-.6963-.1601-.427.0993-.2085.2149-.4087.3458-.5989.3832-.808.6939-1.6484.9285-2.5114.4294-1.4762.9284-3.1985-.0673-4.547a5.3951 5.3951 0 00-1.8569-1.5366 4.42426 4.42426 0 00-1.0143-.2693c-.2066-.051-.065.0186-.1022-.0185-.3713-.39-.3621-1.2302-.3621-1.7641 0-1.1234.0743-2.2282-.0673-3.347-.1276-1.0213-.4015-2.11451-1.2325-2.79692-.9284-.76828-2.0217-.1764-2.9547.30639-1.1258.58028-2.5277 1.20463-3.5142 1.99613 0 0-.2669.1787-.2321.1137.137-.2506.9981.1463.9168.4039.0418-.1369-.1183-.4851-.1485-.6383a15.82168 15.82168 0 00-.3807-1.88936c-.2066-.6383-.5477-1.29285-1.2278-1.518-.3319-.11141-.5989.03714-.9053-.01392a1.59924 1.59924 0 01-.8054-.54778c-.9493-.97022-1.3926-2.21201-1.952-3.41898-.4828-1.0445-1.2186-2.9269-2.6414-1.83135a9.53705 9.53705 0 00-1.1792 1.23018c-.2646.29014-.5245.5826-.7984.86345-.072.07428-.2159.16248-.253.25532-.1671.4178-.5362-.253.5153.07428l.7288.72882c-.6244-1.44604-1.5273-3.53503-3.1521-4.05031-1.6247-.51529-3.7462 1.45997-4.93 2.30485-.3296.23211-.6592.47814-.9818.72418a2.50801 2.50801 0 00-.4294.3296c-.4132.49439.6476-.50832.7335-.09053-.0348-.17176-1.3022-1.02592-1.5645-1.25803-.6963-.61974-1.3787-1.25572-2.0518-1.90098-.3017-.29014-.7636-.90523-1.207-.9679a1.09549 1.09549 0 00-.6665.05136 1.09562 1.09562 0 00-.5126.4291c-.3853.6151-1.0422.87042-1.3927 1.55979-.4363.83327-.6777 1.78492-.9632 2.67622-.1486.46422-.2785.92844-.4642 1.37642a1.79637 1.79637 0 00-.1648.35744c0 .52457 1.1977-.34352 1.2139.07892 0-.19033-.2901-.61741-.3691-.80774-.1764-.42476-.3458-.85417-.5384-1.26964-.6964-1.52729-1.9962-3.07314-3.8438-2.29093-.4317.18337-.7149.53386-1.1605.29246-.3528-.19265-.5966-.71722-.8821-1.00039-.5083-.50368-1.6247-.92844-2.335-.64527a1.079 1.079 0 00-.6181.49772 1.07931 1.07931 0 00-.1107.78585l.3737-.29478-.3342-.12302a3.005 3.005 0 00-.5478-.25764 6.14587 6.14587 0 00-.947-.39691 1.53438 1.53438 0 00-.8694-.02601 1.53445 1.53445 0 00-.7438.45077c-.5176.60581-.3807 1.5064-.5919 2.23058l-.0487.16944c-.2058.30948-.1602.39072.1369.24372.6012.13926.1022-.14856.0859-.17409-.0975-.15087-.4828-.31102-.6453-.40387-1.2139-.6824-2.7853-1.27892-4.17794-.8913-1.09556.29942-2.01007 1.265-1.76868 2.46965.15784.79381.61277 1.5621.8356 2.34895a24.72118 24.72118 0 01.60116 2.71106c.07428.4503.27853 1.1118.21354 1.5737 0 .0511.21122-.1346-.05106.0812a4.48544 4.48544 0 01-1.2209.5966c-1.50175.5942-2.23986 1.7245-2.5741 3.2889-.05803.2763-.2205.7219-.15783.9912l-.03018.2785.7915-.0627c-.01393-.1021-.42709-.2553-.46422-.2692-.75668-.318-1.54817.0232-2.07506.6127-1.2209 1.3672-.32496 2.8179-.09285 4.3405a5.84449 5.84449 0 01-.03249 2.1168 2.12958 2.12958 0 01-.18801.6407c-.21122.3319.07659.1648-.32032.058-1.75242-.4642-3.04528.513-2.64605 2.4a3.01758 3.01758 0 00.8147 1.4484c.30639.3412.23212.0905.21123.6522-.08588 2.5973-.82864 5.2503-.62206 7.85.08588 1.0816.51529 2.1934.90755 3.1915.46422 1.2046 1.21626 2.2259 1.82903 3.2309.61277 1.0051.85649 2.3745 1.12805 3.5281.33424 1.4368.60581 2.8851.87738 4.3358.16712.8983.26925 1.8569.61973 2.6995.25764.622.49904 2.089 1.42748 2.4696 1.24875.4991 1.78957-1.5203.55474-2.0147h.00464z"/><path fill="#fff" d="M7.77887 68.2096c0-.0232.03482-.0302.03946 0 .17176.6963 1.22554 4.6051 5.05067 8.9478 4.2453 4.8187 8.7204 19.1607 19.3905 18.5874 5.6217-.304 8.9618-7.4275 13.4229-13.9985 3.412-5.0275 5.2411-10.445 5.5892-11.5359a.07044.07044 0 01.0253-.0347.06977.06977 0 01.0817 0 .06924.06924 0 01.0253.0347c.2136.5199.9053 1.901 2.1238 1.5296 2.9687-.9029 8.609-13.0492 5.0624-13.337-.7962-.065-.8171-.0859-1.3115.065-2.2886.6963-2.5532 1.829-2.5532 1.829.3449-.9723.5527-1.9879.6174-3.0174.1764-5.4709.0557-18.787-2.3814-23.6637-.8124-1.6247-3.802-5.4569-7.7455-7.3439-3.8136-1.8244-8.5231-2.089-13.5367-2.4093-4.795-.2912-9.571.822-13.7432 3.2031-4.4983 2.5532-9.20548 5.3385-10.23604 14.0357 0 0-.77525 11.3594-.86113 15.231l-.21586 2.2376s-3.04761-5.8585-4.29172.81C1.1707 65.5543 5.23959 69.8762 5.23959 69.8762s2.11684 2.2468 2.53928-1.6666z"/><path fill="#DCAE28" d="M27.8981 88.5077l6.7985-.0418s-5.5497 2.1075-1.4623 5.2062c0 0-2.7853 2.2074-5.3385-5.0762"/></svg>