<svg xmlns="http://www.w3.org/2000/svg" width="48" height="48" fill="none"><defs/><path fill="#F7DF1E" d="M0 0h48v48H0V0z"/><path fill="#000" d="M12.6209 40.1123l3.6733-2.223c.7087 1.2564 1.3533 2.3195 2.8996 2.3195 1.4822 0 2.4167-.5798 2.4167-2.835V22.0366h4.5108v15.4009c0 4.672-2.7386 6.7986-6.7341 6.7986-3.6085 0-5.7031-1.8689-6.7664-4.1242M28.5714 39.629l3.6728-2.1266c.9669 1.579 2.2235 2.7388 4.4466 2.7388 1.869 0 3.0609-.9345 3.0609-2.2233 0-1.5466-1.2243-2.0944-3.2865-2.9963l-1.1274-.4836c-3.2545-1.3852-5.4133-3.1251-5.4133-6.7983 0-3.3832 2.5776-5.961 6.6053-5.961 2.8677 0 4.9298.999 6.4117 3.6089l-3.512 2.2553c-.7734-1.3854-1.6109-1.933-2.8996-1.933-1.3211 0-2.1589.8377-2.1589 1.933 0 1.3533.8378 1.9012 2.7708 2.739l1.1277.4832c3.8343 1.6434 5.9931 3.3187 5.9931 7.0884 0 4.06-3.1898 6.283-7.475 6.283-4.1887 0-6.8953-1.9976-8.2161-4.6075"/></svg>