<svg xmlns="http://www.w3.org/2000/svg" width="48" height="48" fill="none"><defs/><path fill="url(#paint0_radial)" d="M34.7872 16.6573l-.0176-.0076c-.01-.0037-.02-.0075-.0288-.0162a.13793.13793 0 01-.0351-.1165l.9688-5.9162 4.5429 4.5392-4.7246 2.008a.1048.1048 0 01-.0414.0075h-.0188c-.0063-.0038-.0125-.0088-.0251-.0213a2.15059 2.15059 0 00-.6203-.4769zm6.5895-.3606l4.8575 4.8522c1.0088 1.009 1.5139 1.5122 1.6981 2.0956.0276.0864.0502.1728.0677.2616l-11.6087-4.911a.61294.61294 0 00-.0188-.0075c-.0463-.0188-.1002-.04-.1002-.0876 0-.0476.0551-.0701.1015-.0889l.015-.0063 4.9879-2.1081zm6.4253 8.7667c-.2507.4707-.7394.959-1.5665 1.7864l-5.4767 5.4694-7.0832-1.4734-.0376-.0075c-.0627-.0101-.1291-.0213-.1291-.0777-.0544-.59-.3517-1.1309-.8209-1.4934-.0288-.0288-.0213-.0739-.0125-.1152 0-.0063 0-.0125.0025-.0175l1.3322-8.1696.005-.0276c.0075-.0626.0188-.1352.0752-.1352.5767-.0716 1.1004-.3715 1.4537-.8324.0113-.0126.0188-.0263.0339-.0338.0401-.0188.0877 0 .1291.0175l12.0936 5.11h.0013zm-8.3027 8.5139l-9.0057 8.9958 1.5415-9.464.0025-.0125a.17706.17706 0 01.0075-.0363c.0125-.03.0451-.0426.0765-.0551l.015-.0062c.3375-.1439.636-.3657.871-.6473.0301-.035.0664-.0688.1128-.0751a.1163.1163 0 01.0363 0l6.3414 1.302.0012-.0013zM28.5875 44.4772l-1.0152 1.014-11.2226-16.2015a.55528.55528 0 00-.0126-.0175c-.0175-.0238-.0363-.0476-.0326-.0751.0013-.0201.0138-.0376.0276-.0526l.0125-.0163c.0339-.0501.0627-.1001.094-.154l.0251-.0438.0038-.0037c.0175-.0301.0338-.0589.0639-.0751.0263-.0126.0626-.0076.0915-.0013l12.4333 2.5613a.20568.20568 0 01.0952.0413c.0163.0163.0201.0338.0238.0538.1758.6645.6524 1.2086 1.2883 1.471.0351.0175.0201.0563.0038.0976a.30266.30266 0 00-.0188.0563c-.1567.9515-1.5001 9.1361-1.861 11.3456zm-2.1205 2.1169c-.7482.7398-1.1893 1.1317-1.6881 1.2894a2.50976 2.50976 0 01-1.5114 0c-.584-.1853-1.0891-.6885-2.0979-1.6975L9.89927 34.9281l2.94383-4.5605c.0138-.0226.0276-.0426.0501-.0589.0314-.0225.0765-.0125.1141 0a3.05375 3.05375 0 002.0528-.1039c.0338-.0125.0677-.0213.094.0025a.2438.2438 0 01.0351.0401L26.467 46.5953v-.0012zM8.81272 33.8427L6.2273 31.2601l5.1057-2.1757a.10486.10486 0 01.0413-.0088c.0426 0 .0677.0426.0903.0814.0513.0789.1056.1557.1629.2304l.0163.02c.015.0213.005.0425-.0101.0626l-2.81973 4.3727h-.00125zM5.0831 30.1172l-3.27093-3.2674c-.55643-.5558-.95997-.9589-1.2407-1.3056l9.94563 2.0605c.0125.0023.025.0044.0376.0063.0614.01.1291.0213.1291.0788 0 .0626-.0739.0914-.1366.1152l-.0288.0125-5.4353 2.2997zM0 23.8642a2.50136 2.50136 0 01.1128-.6197c.18547-.5834.68927-1.0866 1.69937-2.0956l4.18579-4.1812a2727.08546 2727.08546 0 005.79744 8.3712c.0338.045.0714.0951.0326.1327-.183.2015-.3659.4218-.495.6609a.19932.19932 0 01-.0627.0776c-.0163.0101-.0338.0063-.0526.0026h-.0025L0 23.8629v.0013zm7.11835-8.0156l5.62825-5.6221c.5289.2316 2.4538 1.044 4.1758 1.7701 1.3033.5508 2.4914 1.0516 2.8649 1.2143.0376.015.0714.03.0877.0676.01.0225.005.0513 0 .0751-.181.8244.0653 1.6844.6554 2.2884.0376.0376 0 .0914-.0326.1377l-.0175.0263-5.7147 8.8418c-.0151.0251-.0289.0464-.0539.0626-.0301.0188-.0727.01-.1078.0013a2.85362 2.85362 0 00-.6805-.0927c-.2055 0-.4286.0376-.6542.0789h-.0012c-.0251.0038-.0477.0088-.0677-.0062a.26253.26253 0 01-.0564-.0639l-6.02555-8.7792zm6.76495-6.75755l7.2863-7.27828C22.1784.80503 22.6835.30053 23.2675.11651a2.5091 2.5091 0 011.5114 0c.584.18402 1.089.68852 2.0979 1.69626l1.5791 1.57733-5.1821 8.0169a.19674.19674 0 01-.0514.0601c-.0314.0212-.0752.0125-.1128 0-.8295-.2515-1.7297-.0782-2.4062.4632-.0339.035-.084.015-.1266-.0038-.6767-.2942-5.9403-2.51623-6.6935-2.83545zm15.6729-4.60182l4.7848 4.77958-1.1529 7.13309v.0188a.1686.1686 0 01-.0101.0475c-.0125.0251-.0376.0301-.0626.0376a2.2958 2.2958 0 00-.6868.3417.20337.20337 0 00-.0251.0213c-.0137.015-.0275.0288-.0501.0313a.14196.14196 0 01-.0539-.0088l-7.2913-3.0945-.0138-.0063c-.0463-.0188-.1015-.0413-.1015-.0889a2.74798 2.74798 0 00-.3885-1.1454c-.0351-.0576-.0739-.1177-.0438-.1765l5.0956-7.89047zM24.6285 15.2627l6.8351 2.8918c.0376.0175.079.0338.0953.0726a.13279.13279 0 010 .0713c-.0201.1002-.0376.2141-.0376.3293v.1915c0 .0476-.0489.0676-.094.0864l-.0138.005c-1.0828.4619-15.2017 6.4758-15.223 6.4758-.0213 0-.0439 0-.0652-.0213-.0376-.0375 0-.0901.0339-.1377a1.1145 1.1145 0 00.0175-.025l5.617-8.6879.01-.015c.0326-.0526.0702-.1114.1303-.1114l.0564.0088c.1279.0175.2407.0338.3547.0338.8522 0 1.6417-.4144 2.118-1.1229a.19684.19684 0 01.0426-.0501c.0338-.0251.0839-.0125.1228.005zM16.8008 26.761l15.3897-6.556s.0225 0 .0439.0213c.0839.0839.1554.1402.2243.1928l.0338.0213c.0313.0175.0627.0375.0652.0701 0 .0125 0 .02-.0025.0313l-1.3184 8.0894-.005.0326c-.0088.0626-.0176.1339-.0765.1339-.7136.0481-1.3574.4449-1.7207 1.0604l-.0062.01c-.0176.0288-.0339.0563-.0627.0713-.0263.0125-.0601.0075-.0877.0013l-12.2729-2.5288c-.0125-.0025-.1905-.6497-.2043-.6509z"/><defs><radialGradient id="paint0_radial" cx="0" cy="0" r="1" gradientTransform="translate(24 -24) scale(47.9999)" gradientUnits="userSpaceOnUse"><stop stop-color="#20C6B7"/><stop offset="1" stop-color="#4D9ABF"/></radialGradient></defs></svg>