<svg xmlns="http://www.w3.org/2000/svg" width="48" height="47" fill="none"><defs/><g clip-path="url(#clip0)"><path fill="url(#paint0_radial)" d="M1.99994 2.0047H46.0001v42.8H1.99994v-42.8z"/><path fill="#31C5F0" d="M1.99998 2.0048H46.0001V44.805H1.99998V2.0048zM0 46.8051h48.0001V.00482H0V46.8051zm32.3601-27.6002c-1.5801 0-2.12.8-2.12 1.46 0 .72.36 1.22 2.48 2.32 3.14 1.52 4.12 2.98 4.12 5.1201 0 3.1999-2.44 4.92-5.74 4.92-1.74 0-3.2401-.3601-4.1001-.86-.1399-.06-.1599-.16-.1599-.32v-2.9401c0-.1999.1-.26.24-.1599 1.26.82 2.7 1.18 4.02 1.18 1.58 0 2.24-.66 2.24-1.5601 0-.72-.46-1.36-2.4801-2.4-2.84-1.36-4.0199-2.74-4.0199-5.04 0-2.58 2.02-4.72 5.52-4.72 1.72 0 2.92.26 3.58.56.1599.1.1999.26.1999.3999v2.74c0 .16-.0999.2601-.3.2-.88-.5599-2.18-.8999-3.4799-.8999zm-17.2001 2.38c.46.04.8201.04 1.62.04 2.3401 0 4.5401-.82 4.5401-4 0-2.5399-1.5801-3.82-4.24-3.82-.8 0-1.5601.04-1.9201.06v7.72zm-3.5599-10.6201c0-.1399.28-.24.4399-.24 1.2801-.06 3.1801-.1 5.1601-.1 5.5399 0 7.6999 3.04 7.6999 6.9201 0 5.08-3.68 7.26-8.2 7.26-.7599 0-1.0199-.04-1.56-.04v7.6801c0 .1599-.06.2399-.24.2399h-3.06c-.1599 0-.24-.06-.24-.2399V10.9648h.0001z"/></g><defs><radialGradient id="paint0_radial" cx="0" cy="0" r="1" gradientTransform="matrix(33.4401 0 0 32.376 16.4914 11.5962)" gradientUnits="userSpaceOnUse"><stop stop-color="#34364E" stop-opacity=".98"/><stop offset="1" stop-color="#0C0824"/></radialGradient><clipPath id="clip0"><path fill="#fff" d="M0 0h48v46.8096H0z"/></clipPath></defs></svg>