<svg xmlns="http://www.w3.org/2000/svg" width="48" height="48" fill="none"><defs/><path fill="#F2F2F2" d="M24 48c13.2548 0 24-10.7452 24-24S37.2548 0 24 0 0 10.7452 0 24s10.7452 24 24 24z"/><path fill="#ED1C24" d="M31.2175 38.1905c-4.7389 1.7455-9.9404 1.7455-14.6793 0-.4364-.157-.7855-.6719-.7855-1.117v-1.1433c0-.4451.3491-.6633.7855-.5062 4.7389 1.7455 9.9404 1.7455 14.6793 0 .4363-.1571.7854.0611.7854.5062v1.1433c-.0087.4451-.3578.96-.7854 1.117z"/><path fill="#C1272D" d="M31.2175 36.7942c-4.7389 2.4262-9.9404 2.4262-14.6793 0-.4364-.2182-.7855-.9338-.7855-1.5535v-1.5796c0-.6196.3491-.9251.7855-.6982 4.7389 2.4262 9.9404 2.4262 14.6793 0 .4363-.2182.7854.0786.7854.6982v1.5796c-.0087.6197-.3578 1.3353-.7854 1.5535z"/><path fill="#C1272D" d="M23.8778 39.456c.3711 0 .672-.3009.672-.672 0-.3711-.3009-.672-.672-.672-.3711 0-.672.3009-.672.672 0 .3711.3009.672.672.672z"/><path fill="#FF931E" d="M23.8778 39.264c.3181 0 .576-.2579.576-.576 0-.3181-.2579-.576-.576-.576-.3181 0-.576.2579-.576.576 0 .3181.2579.576.576.576z"/><path fill="#FFB81E" d="M24.0437 39.0894c.1109 0 .2008-.0898.2008-.2007 0-.1108-.0899-.2007-.2008-.2007-.1108 0-.2007.0899-.2007.2007 0 .1109.0899.2007.2007.2007z"/><path fill="#FF931E" d="M23.8778 42.7637c.9929 0 1.7979-.8049 1.7979-1.7979 0-.9929-.805-1.7978-1.7979-1.7978s-1.7978.8049-1.7978 1.7978c0 .993.8049 1.7979 1.7978 1.7979z"/><path fill="#FFB81E" d="M23.8778 42.5979c.8917 0 1.6145-.7229 1.6145-1.6146s-.7228-1.6145-1.6145-1.6145-1.6146.7228-1.6146 1.6145.7229 1.6146 1.6146 1.6146z"/><path fill="#FF931E" d="M24.349 40.4684c.096.0872.1484.2094.1484.384 0 .1745-.0524.2967-.1484.384-.1047.0785-.2531.1222-.4625.1222h-.1833v.3927h-.3142v-1.4051h.4975c.2094 0 .3665.0349.4625.1222zm-.2269.5498c.0349-.0436.0524-.1047.0524-.1833 0-.0785-.0262-.1396-.0698-.1745-.0524-.0349-.1222-.0524-.2269-.0524h-.1746v.4713h.2095c.1047 0 .1745-.0175.2094-.0611z"/><path fill="#F7BD89" d="M38.4436 26.3388c.4364 5.9782-6.0305 11.3455-14.4785 11.3368-8.4393.0087-14.91495-5.3586-14.47858-11.3368.43636-5.9956 6.93818-10.944 14.49598-10.9527 7.5666.0087 14.016 4.9571 14.4611 10.9527z"/><path fill="#FBD5A0" d="M23.9389 14.5483c-7.9418 0-15.31637 5.5942-13.92 14.112.2793.7855.7418 2.8277 2.9498 4.6342.6633.5411 1.8066.9949 2.3477.6284 1.3876-.9426-1.0735-3.648 1.7367-6.144h-.0611c1.5273-1.1607 3.6916-2.0858 6.9294-2.0858 3.2379 0 5.4022.9251 6.9295 2.0858h-.0611c2.8102 2.496.3578 5.2014 1.7367 6.144.5411.3665 1.6931-.0873 2.3477-.6284 2.208-1.8065 2.6792-3.8487 2.9585-4.6342 1.3964-8.5265-5.952-14.112-13.8938-14.112z"/><path fill="#000" d="M30.7724 28.6953c-1.3353-1.6407-3.8662-3.2291-6.8073-3.2291h-.0349c-2.9498 0-5.4807 1.5884-6.8072 3.2291-1.379 1.6757-.8815 2.3913-.8815 3.9971 0 5.8124 2.0335 4.1193 3.4036 4.8175 1.3964.6807 2.8102.4363 4.2938.4363h.0262c1.4837 0 2.8975.2444 4.2939-.445 1.3614-.6982 3.4036 1.0123 3.4036-4.8-.0087-1.5971.4887-2.3302-.8902-4.0059z"/><path fill="#F7BD89" d="M14.1382 28.5469c1.3447 0 2.4349-1.0901 2.4349-2.4349 0-1.3447-1.0902-2.4349-2.4349-2.4349-1.3448 0-2.435 1.0902-2.435 2.4349 0 1.3448 1.0902 2.4349 2.435 2.4349z"/><path fill="#000" d="M14.3563 28.1367c1.3448 0 2.4349-1.0901 2.4349-2.4349 0-1.3447-1.0901-2.4349-2.4349-2.4349-1.3448 0-2.4349 1.0902-2.4349 2.4349 0 1.3448 1.0901 2.4349 2.4349 2.4349z"/><path fill="#fff" d="M14.976 25.2392c.347 0 .6283-.2813.6283-.6284 0-.347-.2813-.6283-.6283-.6283-.3471 0-.6284.2813-.6284.6283 0 .3471.2813.6284.6284.6284z"/><path fill="#F7BD89" d="M33.6873 28.5469c1.3448 0 2.4349-1.0901 2.4349-2.4349 0-1.3447-1.0901-2.4349-2.4349-2.4349-1.3448 0-2.4349 1.0902-2.4349 2.4349 0 1.3448 1.0901 2.4349 2.4349 2.4349z"/><path fill="#000" d="M33.5476 28.1367c1.3447 0 2.4349-1.0901 2.4349-2.4349 0-1.3447-1.0902-2.4349-2.4349-2.4349-1.3448 0-2.4349 1.0902-2.4349 2.4349 0 1.3448 1.0901 2.4349 2.4349 2.4349z"/><path fill="#fff" d="M34.1672 25.2392c.347 0 .6283-.2813.6283-.6284 0-.347-.2813-.6283-.6283-.6283-.3471 0-.6284.2813-.6284.6283 0 .3471.2813.6284.6284.6284z"/><path fill="#F7BD89" d="M18.816 16.7301s-8.2472 1.4226-8.5789 11.2757c-.0087.1483-.1658.2443-.29671.1658l-.26182-.1571-.20073-2.5833.37528-5.2713 3.43858-2.5396 3.0894-1.248 2.4349.3578zM29.0532 16.7301s8.2472 1.4226 8.5789 11.2757c.0087.1483.1658.2443.2967.1658l.2618-.1571.2007-2.5833-.3752-5.2713-3.4386-2.5396-3.0894-1.248-2.4349.3578z"/><path fill="#4D4D4D" d="M23.7662 34.2768v-4.9706h.363v4.9589c.5349.0627 1.23.3737 1.8956.5742.6894.2443 1.3527.3403 1.0909.3752-.9076.035-1.9026-.3054-3.1244-.288-1.2305-.0174-2.2254.323-3.1243.288-.2619-.0436.4014-.1396 1.0909-.3752.6309-.1901 1.2818-.4795 1.8083-.5625zm2.4593-6.6463c.288.6371-.7069 1.6757-2.2865 1.6757-1.5797 0-2.5746-1.0386-2.2866-1.6757.2793-.6545 1.2829-.864 2.2866-.8727 1.0036.0087 2.0072.2182 2.2865.8727z"/><path fill="#000" d="M18.816 16.7301s-9.71342 1.344-8.8756 10.9877c.04363.4887-1.93746-2.0858-3.47346-2.8713-1.536-.7855-1.48363-3.3251-1.48363-3.3251s-.02619-4.4247 6.17889-5.7338c6.1964-1.3004 7.6538.9425 7.6538.9425zm10.2371 0s9.7135 1.344 8.8757 10.9877c-.0437.4887 1.9374-2.0858 3.4734-2.8713 1.536-.7855 1.4836-3.3251 1.4836-3.3251s.0262-4.4247-6.1789-5.7338c-6.1963-1.3004-7.6538.9425-7.6538.9425z"/><path fill="#F7BD89" d="M23.9477 23.6771c-3.0197 0-6.0742 2.9672-5.4371 2.6356 1.1781-.6196 1.8589-1.7105 5.4371-1.7105 3.5781 0 4.2501 1.0909 5.437 1.7105.6371.3316-2.4174-2.6356-5.437-2.6356z"/><path fill="#F7BD89" d="M23.9476 22.3767c-2.2952 0-4.608 2.2517-4.128 1.9986.899-.4713 2.051-1.3004 4.128-1.3004 2.0771 0 3.2291.8291 4.128 1.3004.48.2531-1.8327-1.9986-4.128-1.9986zM23.9301 15.072c-2.5309 0-5.0967 1.4487-4.5644 1.2829.9949-.3055 2.2691-.8378 4.5644-.8378s3.5694.5323 4.5643.8378c.5324.1658-2.0247-1.2829-4.5643-1.2829z"/><path fill="gray" d="M24.515 27.2815c.0698.1571-.1745.4102-.5673.4102-.3927 0-.6371-.2531-.5672-.4102.0698-.1571.3141-.2095.5672-.2182.2444 0 .4975.0524.5673.2182z"/></svg>