<svg xmlns="http://www.w3.org/2000/svg" width="48" height="43" fill="none"><defs/><g clip-path="url(#clip0)"><path fill="#00D8FF" d="M39.4656 13.8419c-.4979-.1714-1.0139-.3335-1.5451-.4869.0873-.3564.1674-.7081.2387-1.0539 1.1696-5.67768.4049-10.25168-2.2066-11.75763-2.504-1.44401-6.5992.0616-10.7352 3.66099-.3977.34611-.7965.71256-1.1952 1.09661-.2656-.25409-.5308-.49965-.7953-.73452C18.8923.71785 14.5475-.90405 11.9386.60626 9.43695 2.05446 8.6961 6.35445 9.74897 11.7353c.10168.5197.22052 1.0504.35493 1.5901-.61492.1745-1.20855.3606-1.77655.5586C3.2455 15.6557 0 18.4325 0 21.3127c0 2.9748 3.48405 5.9585 8.77719 7.7677.41771.1428.85114.2777 1.29781.4059-.14498.5836-.27109 1.1556-.37695 1.7134-1.00391 5.2874-.21992 9.4858 2.27505 10.9249 2.5771 1.4861 6.9022-.0415 11.1138-3.7229.3329-.291.6669-.5996 1.0016-.9231.4338.4178.8669.8131 1.2977 1.1839 4.0794 3.5104 8.1084 4.928 10.6011 3.4849 2.5746-1.4904 3.4113-6.0005 2.325-11.4878-.083-.419-.1795-.8472-.2879-1.2829.3037-.0898.6019-.1825.8926-.2789C44.4198 27.2746 48 24.3272 48 21.3127c0-2.8906-3.3502-5.6861-8.5344-7.4708zm-1.1935 13.3095c-.2624.0869-.5317.1709-.8062.2523-.6074-1.9231-1.4273-3.9681-2.4306-6.081.9574-2.0625 1.7456-4.0813 2.336-5.992.4911.1421.9676.292 1.4269.4501 4.4418 1.5291 7.1513 3.7899 7.1513 5.5319 0 1.8556-2.9262 4.2644-7.6774 5.8387zm-1.9714 3.9065c.4803 2.4264.549 4.6201.2308 6.335-.2859 1.541-.8608 2.5684-1.5717 2.9799-1.5127.8756-4.7476-.2625-8.2363-3.2647-.4-.3442-.8028-.7116-1.207-1.1006 1.3526-1.4792 2.7043-3.1988 4.0236-5.1086 2.3204-.2059 4.5127-.5426 6.5008-1.0021.0979.3949.1849.7823.2598 1.1611zm-19.9364 9.1636c-1.4779.522-2.655.5369-3.3666.1266-1.5141-.8733-2.1435-4.2442-1.2849-8.766.0983-.5178.2154-1.0498.3503-1.5935 1.9663.4348 4.1425.7477 6.4685.9362 1.3282 1.8689 2.719 3.5866 4.1205 5.0907-.3062.2956-.6112.5771-.9145.8423-1.8624 1.6278-3.7286 2.7828-5.3733 3.3637zM9.44036 27.1401c-2.34052-.8-4.27342-1.8397-5.59832-2.9743-1.19051-1.0195-1.79158-2.0317-1.79158-2.8531 0-1.7478 2.60581-3.9772 6.95186-5.4924.52733-.1839 1.07938-.3572 1.65218-.5199.6007 1.9538 1.3886 3.9966 2.3395 6.0622-.9632 2.0964-1.7623 4.1717-2.3688 6.1484-.4084-.1174-.80412-.2409-1.18484-.3709zm2.32094-15.7986c-.902-4.61017-.3029-8.0879 1.2046-8.96057 1.6059-.92967 5.1568.39584 8.8994 3.719.2392.2124.4794.43472.7203.66472-1.3947 1.49749-2.7727 3.20235-4.0891 5.06015-2.2575.2092-4.4184.5454-6.4052.9954-.1249-.5024-.2356-.9961-.33-1.4787zm20.7051 5.1126a65.22507 65.22507 0 00-1.4597-2.4005c1.5315.1936 2.9988.4506 4.3768.7651-.4137 1.3258-.9293 2.7121-1.5363 4.1332-.4354-.8266-.8959-1.6601-1.3808-2.4978zm-8.4435-8.224c.9458 1.02468 1.893 2.1687 2.8246 3.41A60.30412 60.30412 0 0024 11.5727c-.9492 0-1.8927.0225-2.8257.0661.9326-1.2297 1.888-2.37223 2.8486-3.4087zm-8.4975 8.2382a60.36882 60.36882 0 00-1.355 2.4821c-.5972-1.4162-1.108-2.8088-1.5253-4.1534 1.3695-.3065 2.8299-.5571 4.3517-.747a60.25847 60.25847 0 00-1.4714 2.4181v.0002zm1.5152 12.2535c-1.5722-.1754-3.0546-.4131-4.4238-.7111.424-1.3687.9461-2.791 1.5559-4.2376.4297.8298.8834 1.6591 1.3608 2.4836h.0001c.4862.84.9899 1.6627 1.507 2.4651zm7.039 5.8182c-.9718-1.0486-1.9412-2.2086-2.888-3.4562.9191.036 1.8561.0545 2.8084.0545.9784 0 1.9455-.0221 2.8975-.0644-.9347 1.2701-1.8785 2.4318-2.8179 3.4661zm9.7872-10.8407c.6416 1.4623 1.1824 2.8772 1.6118 4.2225-1.3917.3175-2.8943.5732-4.4775.7633.4983-.7897.9901-1.6044 1.4735-2.4425a65.2411 65.2411 0 001.3922-2.5433zm-3.1684 1.5189c-.7504 1.301-1.5207 2.5429-2.3027 3.7152-1.4244.1019-2.8959.1543-4.3957.1543-1.4937 0-2.9467-.0464-4.3459-.1372-.8135-1.1877-1.6006-2.4333-2.3461-3.7211h.0001c-.7435-1.2843-1.4279-2.5795-2.048-3.8674.6199-1.2909 1.3025-2.5876 2.0418-3.8696l-.0002.0003c.7413-1.2855 1.5214-2.525 2.3275-3.7053 1.4275-.1079 2.8913-.1642 4.3707-.1642H24c1.486 0 2.9518.0567 4.3789.1656.7937 1.1716 1.5685 2.4072 2.3127 3.6928.7526 1.3 1.444 2.588 2.0693 3.8512-.6234 1.285-1.3132 2.5859-2.0625 3.8854zm4.23-22.89828c1.6073.92693 2.2324 4.66525 1.2225 9.56738-.0644.3127-.1369.6313-.2157.9542-1.9914-.4595-4.1539-.8014-6.418-1.0138-1.3189-1.87821-2.6857-3.58572-4.0576-5.06399.3689-.35483.7372-.69317 1.104-1.01246 3.5437-3.08393 6.8557-4.30153 8.3648-3.43133zM24 17.0265c2.3672 0 4.2862 1.919 4.2862 4.2862S26.3672 25.599 24 25.599s-4.2862-1.9191-4.2862-4.2863c0-2.3672 1.919-4.2862 4.2862-4.2862z"/></g><defs><clipPath id="clip0"><path fill="#fff" d="M0 0h48v42.75H0z"/></clipPath></defs></svg>