<svg xmlns="http://www.w3.org/2000/svg" width="48" height="36" fill="none"><defs/><path fill="#CD6799" d="M41.3027 20.7213c-1.6699.0088-3.1213.411-4.3366 1.0055-.4459-.8831-.8918-1.67-.9705-2.247-.0874-.6732-.1923-1.0842-.0874-1.8885.1049-.8044.5771-1.9498.5683-2.0372-.0087-.0874-.1049-.4983-1.0667-.5071-.9617-.0087-1.7923.1836-1.8885.4372-.0962.2535-.2798.8306-.4022 1.4251-.1661.8743-1.9235 3.9956-2.9289 5.6306-.3235-.6382-.6033-1.1978-.6645-1.6437-.0874-.6732-.1924-1.0842-.0874-1.8885.1049-.8044.577-1.9498.5683-2.0372-.0088-.0874-.105-.4984-1.0667-.5071-.9618-.0087-1.7924.1836-1.8885.4372-.0962.2535-.2011.8481-.4022 1.4251-.2011.5771-2.5355 5.788-3.1476 7.1344-.3147.6907-.5857 1.2416-.7781 1.6175 0 0-.0087.0262-.035.07-.1661.3235-.2623.4983-.2623.4983v.0088c-.1311.236-.271.4546-.3409.4546-.0525 0-.1487-.6295.0174-1.4863.3498-1.8099 1.1804-4.6252 1.1716-4.7213 0-.0525.1574-.5421-.5421-.7957-.6819-.2535-.9267.1661-.9879.1661-.0612 0-.1049.1487-.1049.1487s.7606-3.165-1.4514-3.165c-1.3814 0-3.2874 1.5125-4.2317 2.8765-.5945.3235-1.8623 1.0142-3.2175 1.7573-.5158.2886-1.0492.5771-1.5475.8481-.035-.035-.07-.0787-.105-.1136-2.67537-2.8591-7.624-4.8787-7.41416-8.717.07868-1.3989.55956-5.07102 9.50386-9.53003 7.3617-3.62842 13.2196-2.62295 14.2338-.39344 1.4514 3.18251-3.1388 9.09287-10.7453 9.94977-2.9027.3234-4.4241-.7957-4.8088-1.2153-.4021-.4372-.4633-.4634-.612-.376-.2448.1311-.0874.5246 0 .7519.2273.5945 1.1629 1.6437 2.7454 2.1596 1.3989.4546 4.8.7082 8.918-.8831 4.6077-1.7836 8.2098-6.74097 7.1519-10.89398-1.0579-4.2142-8.0524-5.60437-14.671-3.25246-3.9344 1.39891-8.20111 3.60219-11.26996 6.46995C.47214 11.1038-.10491 14.0678.13115 15.3093c.84809 4.4066 6.92459 7.2743 9.35519 9.3989-.1224.07-.23606.1312-.33224.1836-1.2153.6033-5.84918 3.0252-7.00328 5.5869-1.31147 2.9027.20984 4.9836 1.21531 5.2634 3.12131.8656 6.33005-.6907 8.05247-3.2612 1.7224-2.5705 1.5126-5.9104.7169-7.4404-.0087-.0175-.0175-.035-.0349-.0525.3147-.1836.6382-.376.953-.5596.6207-.3672 1.2327-.7082 1.7573-.9879-.2972.8131-.5158 1.7836-.6207 3.1825-.1312 1.6437.542 3.777 1.4251 4.6164.3934.3672.8568.3759 1.1541.3759 1.0317 0 1.4951-.8568 2.0109-1.871.6295-1.2416 1.1978-2.6842 1.1978-2.6842s-.7081 3.8995 1.2153 3.8995c.6995 0 1.4077-.9093 1.7225-1.3727v.0087s.0174-.0262.0524-.0874c.07-.1136.1137-.1836.1137-.1836v-.0175c.2798-.4896.9093-1.6 1.8448-3.4448 1.2065-2.3781 2.3694-5.3508 2.3694-5.3508s.1049.7257.4634 1.9322c.2098.7082.647 1.4864.9967 2.2383-.2798.3934-.4547.612-.4547.612l.0088.0087c-.2273.2973-.4721.6208-.7432.9356-.953 1.1366-2.0896 2.4393-2.247 2.8153-.1836.4459-.1399.7694.2099 1.0317.2535.1923.7082.2185 1.1715.1923.8569-.0612 1.4602-.271 1.7574-.4022.4634-.1661 1.0055-.4196 1.5126-.7956.9355-.6907 1.5038-1.6787 1.4514-2.9814-.0263-.717-.2623-1.4339-.5509-2.1071.0875-.1224.1662-.2448.2536-.3672 1.4776-2.1596 2.6229-4.529 2.6229-4.529s.105.7257.4634 1.9322c.1749.6121.5334 1.2765.8481 1.9235-1.3901 1.1279-2.247 2.4394-2.553 3.2962-.5508 1.5913-.1224 2.3082.6907 2.4743.3672.0787.8918-.0961 1.2765-.2623.4896-.1573 1.0667-.4284 1.6175-.8306.9355-.6907 1.8361-1.6524 1.7836-2.9552-.0262-.5945-.1836-1.1803-.4022-1.7486 1.1804-.4896 2.7017-.7606 4.6427-.5333 4.1617.4896 4.9836 3.0863 4.8262 4.1792-.1574 1.0929-1.0317 1.6874-1.3202 1.871-.2886.1837-.3847.2449-.3585.376.035.1924.1749.1836.4197.1486.341-.0612 2.1858-.883 2.2644-2.894.1312-2.5704-2.3169-5.377-6.6448-5.3508zM9.19782 31.5454C7.8164 33.0492 5.8929 33.6175 5.0623 33.1366c-.8918-.5158-.54208-2.7366 1.1541-4.3278 1.03169-.9705 2.36065-1.8711 3.24371-2.4219.2011-.1224.49837-.2973.85679-.5158.0612-.035.0962-.0525.0962-.0525.07-.0437.1399-.0874.2099-.1312.6207 2.2733.0262 4.2755-1.42518 5.858zm10.05468-6.8372c-.4809 1.1716-1.4864 4.1705-2.0984 4.0044-.5246-.1399-.8481-2.4131-.1049-4.6601.3759-1.1279 1.1716-2.4743 1.635-2.9989.7519-.8394 1.5825-1.1192 1.7836-.7782.2535.4459-.9181 3.6984-1.2153 4.4328zm8.2972 3.9694c-.2011.1049-.3934.1749-.4808.1224-.0612-.035.0874-.1748.0874-.1748s1.0404-1.1192 1.4514-1.6263c.236-.2972.5158-.647.8131-1.0404v.1136c0 1.3378-1.294 2.2383-1.8711 2.6055zm6.4-1.4601c-.1486-.1049-.1224-.4546.376-1.5475.1923-.4285.647-1.1454 1.4251-1.8361.0875.2798.1487.5508.1399.8044-.0087 1.6874-1.2153 2.3169-1.941 2.5792z"/></svg>