<svg xmlns="http://www.w3.org/2000/svg" width="48" height="29" fill="none"><defs/><g clip-path="url(#clip0)"><path fill="url(#paint0_linear)" d="M23.9396 0c-6.3839 0-10.3738 3.19195-11.9698 9.57584 2.394-3.19195 5.1869-4.38893 8.3789-3.59094 1.8211.4553 3.1228 1.7765 4.5636 3.23903 2.3472 2.38247 5.0637 5.13987 10.9971 5.13987 6.3839 0 10.3738-3.192 11.9698-9.57588-2.394 3.19195-5.1869 4.38893-8.3789 3.59094-1.8211-.4553-3.1228-1.7765-4.5636-3.23903C32.5895 2.7574 29.873 0 23.9396 0zM11.9698 14.3638c-6.38389 0-10.37383 3.1919-11.9698 9.5758 2.39396-3.1919 5.18691-4.3889 8.37886-3.5909 1.82114.4553 3.12284 1.7765 4.56364 3.239 2.3472 2.3824 5.0637 5.1398 10.9971 5.1398 6.3839 0 10.3738-3.1919 11.9698-9.5758-2.394 3.1919-5.1869 4.3889-8.3789 3.5909-1.8211-.4553-3.1228-1.7765-4.5636-3.239-2.3472-2.3824-5.0637-5.1398-10.9971-5.1398z"/></g><defs><linearGradient id="paint0_linear" x1="-1.32998" x2="40.0216" y1="9.19281" y2="33.0351" gradientUnits="userSpaceOnUse"><stop stop-color="#2298BD"/><stop offset="1" stop-color="#0ED7B5"/></linearGradient><clipPath id="clip0"><path fill="#fff" d="M0 0h48v28.9811H0z"/></clipPath></defs></svg>