<svg xmlns="http://www.w3.org/2000/svg" width="48" height="47" fill="none"><defs/><g clip-path="url(#clip0)"><path fill="#FF26BE" d="M39.5002 46.8H8.49984C3.79968 46.8 0 43.0003 0 38.3002V8.49984C0 3.79968 3.79968 0 8.49984 0H39.5002C44.2003 0 48 3.79968 48 8.49984V38.3002c0 4.7001-3.7997 8.4998-8.4998 8.4998z"/><path fill="#2E001F" d="M38.7396 44.7994H9.25995c-3.99936 0-7.25952-3.2602-7.25952-7.2595V9.26019c0-3.99936 3.26016-7.25952 7.25952-7.25952H38.7204c4.0205 0 7.2595 3.26016 7.2595 7.25952V37.5207c.0192 4.0185-3.2409 7.2787-7.2403 7.2787z"/><path fill="#FFD9F2" d="M18.9793 21.8995L24.58 32.6592c.0998.1593.0403.3206-.121.3206h-3.4809c-.2208 0-.3207-.0595-.4205-.2592-1.2807-2.64-2.5805-5.28-3.9207-8.1197h-.0403c-1.2 2.6803-2.5209 5.5008-3.7997 8.1408-.0998.1594-.1996.2208-.3609.2208H9.13933c-.19968 0-.2208-.1593-.11904-.2803L14.5 22.2412l-5.29923-10.56c-.12096-.1593 0-.2803.11904-.2803h3.44069c.1996 0 .2803.0403.359.2208 1.2595 2.64 2.5402 5.3607 3.7402 8.0199H16.9c1.1597-2.64 2.4403-5.3799 3.6806-8.0007.0999-.1593.1594-.2592.361-.2592h3.2198c.1594 0 .2208.121.121.2803l-5.3031 10.2375zm6.5818 3.2601c0-4.6598 3.1008-8.3001 8.0198-8.3001.4205 0 .6394 0 1.0407.0403v-5.2992c0-.121.0998-.1997.1997-.1997h3.1603c.1593 0 .1997.0595.1997.1594v18.3609c0 .5396 0 1.2192.0998 1.9604 0 .1209-.0403.1593-.1594.2208-1.68.8006-3.4406 1.1596-5.1206 1.1596-4.3411.0173-7.4419-2.6611-7.44-8.1024zm9.0586-5.1187c-.2804-.1209-.6797-.1997-1.1597-.1997-2.521 0-4.2797 1.9392-4.2797 5.161 0 3.6806 1.801 5.161 4.0608 5.161.48 0 1.0003-.0596 1.3805-.2208v-9.9015h-.0019z"/></g><defs><clipPath id="clip0"><path fill="#fff" d="M0 0h48v46.8H0z"/></clipPath></defs></svg>